<svg xmlns="http://www.w3.org/2000/svg" width="58.683" height="70" viewBox="0 0 58.683 70">
  <g id="body-scale" transform="translate(-41.389 0)">
    <g id="Group_18796" data-name="Group 18796" transform="translate(41.389 0)">
      <path id="Path_6875" data-name="Path 6875" d="M93.331,0H48.13a6.749,6.749,0,0,0-6.741,6.741V63.259A6.749,6.749,0,0,0,48.13,70h45.2a6.749,6.749,0,0,0,6.741-6.741V6.741A6.749,6.749,0,0,0,93.331,0Zm4.007,63.259a4.011,4.011,0,0,1-4.007,4.007H48.13a4.011,4.011,0,0,1-4.007-4.007V6.741A4.011,4.011,0,0,1,48.13,2.734h45.2a4.011,4.011,0,0,1,4.007,4.007Z" transform="translate(-41.389 0)" fill="#1a3159"/>
      <path id="Path_6876" data-name="Path 6876" d="M166.394,49.894H135.92a1.367,1.367,0,0,0-1.367,1.367V65.4a1.367,1.367,0,0,0,1.367,1.367h30.474a1.367,1.367,0,0,0,1.367-1.367V51.261A1.367,1.367,0,0,0,166.394,49.894ZM145.621,64.031a5.7,5.7,0,0,1,11.071,0Zm19.405,0h-5.545a8.438,8.438,0,0,0-2.957-5.136l1.094-1.094a1.367,1.367,0,1,0-1.934-1.933l-1.614,1.614a8.438,8.438,0,0,0-11.24,6.55h-5.545v-11.4h27.74Z" transform="translate(-121.816 -43.073)" fill="#1a3159"/>
    </g>
    <g id="Group_18799" data-name="Group 18799" transform="translate(49.782 31.68)">
      <g id="Group_18797" data-name="Group 18797" transform="translate(25.137)">
        <path id="Path_6877" data-name="Path 6877" d="M303.4,240.1a8.38,8.38,0,1,0-16.363,2.553,23.255,23.255,0,0,1,1.082,7.079v4.773a5.913,5.913,0,1,0,11.825.088,23.448,23.448,0,0,1,2.542-10.683A8.343,8.343,0,0,0,303.4,240.1Z" transform="translate(-286.638 -231.721)" fill="#c1e6dd"/>
      </g>
      <g id="Group_18798" data-name="Group 18798">
        <path id="Path_6878" data-name="Path 6878" d="M102.78,240.1a8.38,8.38,0,1,1,16.363,2.553,23.255,23.255,0,0,0-1.082,7.079v4.773a5.913,5.913,0,1,1-11.825.088,23.448,23.448,0,0,0-2.542-10.683A8.343,8.343,0,0,1,102.78,240.1Z" transform="translate(-102.78 -231.721)" fill="#c1e6dd"/>
      </g>
    </g>
  </g>
</svg>
