<svg xmlns="http://www.w3.org/2000/svg" width="70.882" height="71" viewBox="0 0 70.882 71">
  <g id="Group_18932" data-name="Group 18932" transform="translate(-686.581 -1588.891)">
    <path id="Path_6901" data-name="Path 6901" d="M316.452,331.593a14.5,14.5,0,0,0,14.45-14.5c-.739-19.2-28.164-19.2-28.9,0A14.5,14.5,0,0,0,316.452,331.593Z" transform="translate(395.92 1317.007)" fill="#c1e6dd" fill-rule="evenodd"/>
    <path id="Path_7003" data-name="Path 7003" d="M357.04,346.015h-2.62v-2.62a1.367,1.367,0,0,0-1.367-1.367h-5.7a1.367,1.367,0,0,0-1.367,1.367v2.62h-2.62A1.367,1.367,0,0,0,342,347.382v5.7a1.367,1.367,0,0,0,1.367,1.367h2.62v2.62a1.367,1.367,0,0,0,1.367,1.367h5.7a1.367,1.367,0,0,0,1.367-1.367v-2.62h2.62a1.367,1.367,0,0,0,1.367-1.367v-5.7A1.367,1.367,0,0,0,357.04,346.015Zm-1.367,5.7h-2.62a1.367,1.367,0,0,0-1.367,1.367v2.62h-2.962v-2.62a1.367,1.367,0,0,0-1.367-1.367h-2.62v-2.962h2.62a1.367,1.367,0,0,0,1.367-1.367v-2.62h2.962v2.62a1.367,1.367,0,0,0,1.367,1.367h2.62Z" transform="translate(361.967 1283.598)" fill="#234177"/>
    <g id="male" transform="translate(686.716 1589.391)">
      <path id="Path_7002" data-name="Path 7002" d="M25.607,70A25.249,25.249,0,0,1,7.753,26.9,25.2,25.2,0,0,1,39.4,23.641L52.757,10.22h-1.97a5.11,5.11,0,1,1,0-10.22H65.132a5.275,5.275,0,0,1,3.694,1.539A4.873,4.873,0,0,1,70.242,5.11V19.516a5.11,5.11,0,0,1-10.22,0v-1.97l-13.36,13.36A25.345,25.345,0,0,1,43.4,62.612,25.062,25.062,0,0,1,25.607,70Zm0-48.637A23.437,23.437,0,0,0,2.274,44.758a23.039,23.039,0,0,0,6.834,16.5A23.352,23.352,0,0,0,44.692,31.275a.932.932,0,0,1,.123-1.17L60.268,14.652a.851.851,0,0,1,.985-.185.872.872,0,0,1,.554.862v4.187a3.263,3.263,0,0,0,6.526,0V5.11a3.379,3.379,0,0,0-.862-2.278,3.4,3.4,0,0,0-2.4-.985H50.725a3.263,3.263,0,0,0,0,6.526h4.187a.966.966,0,0,1,.862.554.939.939,0,0,1-.185.985L40.136,25.426a.932.932,0,0,1-1.17.123A23.517,23.517,0,0,0,25.607,21.363Zm0,40.141a16.715,16.715,0,1,1,0-33.43,17.035,17.035,0,0,1,11.882,4.864,16.8,16.8,0,0,1,0,23.7h0A16.818,16.818,0,0,1,25.607,61.5Zm0-31.645A14.364,14.364,0,0,0,15.079,34.23a14.9,14.9,0,0,0,0,21.117,14.71,14.71,0,0,0,10.528,4.371,14.364,14.364,0,0,0,10.528-4.371,15.013,15.013,0,0,0,0-21.117A14.815,14.815,0,0,0,25.607,29.859Z" fill="#234177" stroke="#234177" stroke-width="1"/>
    </g>
  </g>
</svg>
