<svg xmlns="http://www.w3.org/2000/svg" width="61.185" height="60" viewBox="0 0 61.185 60">
  <g id="heart-rate" transform="translate(0 -4.959)">
    <path id="Path_6894" data-name="Path 6894" d="M123.873,26.229c9.466-16.4-7.941-27.291-17.584-17.648C96.646-1.063,79.238,9.833,88.7,26.229c4.357,7.546,13.143,14.464,17.584,15.654C110.73,40.692,119.516,33.774,123.873,26.229Z" transform="translate(-75.698 0)" fill="#c1e6dd" fill-rule="evenodd"/>
    <g id="Group_18805" data-name="Group 18805" transform="translate(0 13.581)">
      <path id="Path_6895" data-name="Path 6895" d="M61.034,339.759a3.952,3.952,0,0,0-4.963-2.562c-.019,0-11.328,2.737-11.349,2.74a3.7,3.7,0,0,0-3.915-3c-1.249.114-9.111,1.01-10.415,1.13a23.547,23.547,0,0,1-5.072-.441c-3.315-.5-7.073-1.063-10.843-.214C10,338.426,6.586,341.2,4.026,345.89L.465,352.178a3.554,3.554,0,0,0,0,3.514,3.108,3.108,0,0,0,2.7,1.552H15.649c3.077.12,3.461-1.494,4.894-3.669l7.128.34c5.266.251,6.947-.016,11.99-1.907,3.9-1.463,8.778-3.459,12.7-5.062,2.805-1.148,5.228-2.14,6.138-2.458a3.834,3.834,0,0,0,2.54-4.727ZM57.7,342.232c-4.757,1.8-13.532,5.572-18.878,7.536-4.747,1.78-6.088,1.993-11.037,1.757l-7.825-.373a1.194,1.194,0,0,0-1.068.557l-1.41,2.241a2.35,2.35,0,0,1-.613.771,3.551,3.551,0,0,1-1.22.13H3.164c-.8-.042-.936-.927-.614-1.505.009-.017,3.561-6.289,3.57-6.3,4.834-8.669,11.544-8.168,18.845-7.047,4.639.8,5.675.463,10.874-.11,2.238-.248,4.553-.5,5.188-.563a1.307,1.307,0,0,1,1.369,1.221c.021.239.076.873-1.515,1.561a60.421,60.421,0,0,1-9.617,3.287,1.2,1.2,0,1,0,.546,2.327A62.9,62.9,0,0,0,41.831,344.3a5.368,5.368,0,0,0,2.374-1.777l12.4-2.993c1.106-.243,1.9.093,2.139.9A1.46,1.46,0,0,1,57.7,342.232Z" transform="translate(0 -305.871)" fill="#1a3159"/>
      <path id="Path_6896" data-name="Path 6896" d="M51.392,88.135H67.444a1.2,1.2,0,0,0,1.1-.727l2.576-6.059,6.252,14.7a1.2,1.2,0,0,0,2.2,0l3.366-7.917H98.2a1.2,1.2,0,0,0,0-2.39H82.147a1.2,1.2,0,0,0-1.1.727l-2.576,6.059-6.252-14.7a1.2,1.2,0,0,0-2.2,0l-3.366,7.917H51.392a1.2,1.2,0,0,0,0,2.39Z" transform="translate(-44.205 -77.1)" fill="#1a3159"/>
    </g>
  </g>
</svg>
