<svg xmlns="http://www.w3.org/2000/svg" width="74.711" height="64" viewBox="0 0 74.711 64">
  <g id="honey" transform="translate(0.001 -36.701)">
    <g id="Group_18913" data-name="Group 18913" transform="translate(1.459 36.701)">
      <path id="Path_6985" data-name="Path 6985" d="M179.131,299.86H164.772l-7.179,12.8,7.179,12.8h14.358l7.179-12.8Z" transform="translate(-136.056 -261.46)" fill="#c1e6dd" fill-rule="evenodd"/>
      <path id="Path_6986" data-name="Path 6986" d="M31.538,36.7H17.179L10,49.5l7.179,12.8H31.538l7.179-12.8Z" transform="translate(-10 -36.701)" fill="#c1e6dd" fill-rule="evenodd"/>
    </g>
    <g id="Group_18914" data-name="Group 18914" transform="translate(-0.001 48.042)">
      <path id="Path_6987" data-name="Path 6987" d="M74.524,140.765l-7.179-12.8a1.459,1.459,0,0,0-1.273-.745h-13.5l-6.761-12.055a1.459,1.459,0,0,0-1.273-.745H30.174a1.459,1.459,0,0,0-1.273.745L22.141,127.22H8.638a1.459,1.459,0,0,0-1.273.745l-7.179,12.8a1.459,1.459,0,0,0,0,1.428l7.179,12.8a1.459,1.459,0,0,0,1.273.745H23a1.459,1.459,0,0,0,1.273-.745l6.761-12.055H43.679l6.761,12.055a1.459,1.459,0,0,0,1.273.745H66.072a1.459,1.459,0,0,0,1.273-.745l7.179-12.8A1.459,1.459,0,0,0,74.524,140.765ZM31.029,117.339H43.678l6.361,11.341L43.678,140.02H31.03l-6.361-11.342ZM22.142,152.82H9.492L3.132,141.479l6.361-11.341H22.141L28.5,141.48Zm43.075,0H52.568l-6.361-11.341,6.361-11.341H65.217l6.361,11.341Z" transform="translate(0.001 -114.42)" fill="#234177"/>
    </g>
  </g>
</svg>
