<svg xmlns="http://www.w3.org/2000/svg" width="46.484" height="70" viewBox="0 0 46.484 70">
  <g id="iv-bag" transform="translate(-86.001 0)">
    <path id="Path_6858" data-name="Path 6858" d="M168.813,103.7v32.812a2.742,2.742,0,0,1-2.734,2.734H138.735A2.742,2.742,0,0,1,136,136.512V103.7C149.393,100.112,154.025,107.663,168.813,103.7Z" transform="translate(-43.164 -88.661)" fill="#c1e6dd" fill-rule="evenodd"/>
    <g id="Group_18787" data-name="Group 18787" transform="translate(86.001 0)">
      <path id="Path_6859" data-name="Path 6859" d="M128.384,0H90.1A4.106,4.106,0,0,0,86,4.1V53.32a4.106,4.106,0,0,0,4.1,4.1h4.1v4.1a4.109,4.109,0,0,0,2.734,3.867v3.242a1.367,1.367,0,1,0,2.734,0V65.391a4.109,4.109,0,0,0,2.734-3.867v-4.1h13.672v4.1a4.1,4.1,0,1,0,8.2,0v-4.1h4.1a4.106,4.106,0,0,0,4.1-4.1V4.1a4.106,4.106,0,0,0-4.1-4.1ZM102.407,2.734h13.672V4.1a1.369,1.369,0,0,1-1.367,1.367H103.774A1.369,1.369,0,0,1,102.407,4.1ZM129.751,53.32a1.369,1.369,0,0,1-1.367,1.367h-5.469a1.367,1.367,0,0,0-1.367,1.367v5.469a1.367,1.367,0,0,1-2.734,0V56.055a1.367,1.367,0,0,0-1.367-1.367H101.04a1.367,1.367,0,0,0-1.367,1.367v5.469a1.367,1.367,0,1,1-2.734,0V56.055a1.367,1.367,0,0,0-1.367-1.367H90.1a1.369,1.369,0,0,1-1.367-1.367V4.1A1.369,1.369,0,0,1,90.1,2.734h9.57V4.1a4.106,4.106,0,0,0,4.1,4.1h10.938a4.106,4.106,0,0,0,4.1-4.1V2.734h9.57A1.369,1.369,0,0,1,129.751,4.1Z" transform="translate(-86.001 0)" fill="#234177"/>
      <path id="Path_6860" data-name="Path 6860" d="M209.22,166.848a1.376,1.376,0,0,0-2.061,0c-.172.2-.356.406-.55.626-2.386,2.707-5.991,6.8-5.991,10.473a7.572,7.572,0,1,0,15.144,0c-.048-4-3.99-8.168-6.542-11.1Zm-1.031,15.937a4.843,4.843,0,0,1-4.838-4.838c0-2.442,2.84-5.849,4.838-8.13,2,2.281,4.838,5.688,4.838,8.13A4.843,4.843,0,0,1,208.189,182.786Z" transform="translate(-184.947 -143.636)" fill="#234177"/>
    </g>
  </g>
</svg>
