<svg xmlns="http://www.w3.org/2000/svg" width="68.373" height="60" viewBox="0 0 68.373 60">
  <g id="medical-kit_3_" data-name="medical-kit (3)" transform="translate(0 -31.348)">
    <g id="Group_18915" data-name="Group 18915" transform="translate(20.605 54.21)">
      <path id="Path_6988" data-name="Path 6988" d="M179.545,210.817h-6.309v-6.343a1.921,1.921,0,0,0-1.916-1.926H164.44a1.921,1.921,0,0,0-1.916,1.926v6.343h-6.309a1.921,1.921,0,0,0-1.916,1.926v6.918a1.921,1.921,0,0,0,1.916,1.926h6.309v6.343a1.921,1.921,0,0,0,1.916,1.926h6.881a1.921,1.921,0,0,0,1.916-1.926v-6.343h6.309a1.921,1.921,0,0,0,1.916-1.926v-6.918A1.921,1.921,0,0,0,179.545,210.817Z" transform="translate(-154.299 -202.548)" fill="#c1e6dd"/>
    </g>
    <g id="Group_18916" data-name="Group 18916" transform="translate(0 31.348)">
      <path id="Path_6989" data-name="Path 6989" d="M62.863,44.38H60.275v-.832a5.415,5.415,0,0,0-8.166-4.667V36.953a5.6,5.6,0,0,0-5.583-5.605H21.846a5.6,5.6,0,0,0-5.583,5.605v2.39a5.415,5.415,0,0,0-8.831,4.2v.832H5.509A5.527,5.527,0,0,0,0,49.911v35.9a5.527,5.527,0,0,0,5.509,5.532H62.863a5.527,5.527,0,0,0,5.509-5.532v-35.9A5.527,5.527,0,0,0,62.863,44.38ZM54.857,40.8A2.751,2.751,0,0,1,57.6,43.548v7.291a2.748,2.748,0,0,1-5.5,0V43.548A2.751,2.751,0,0,1,54.857,40.8ZM18.934,36.953a2.927,2.927,0,0,1,2.912-2.935h24.68a2.927,2.927,0,0,1,2.912,2.935V44.38H45.515V39.313a1.336,1.336,0,0,0-1.335-1.335H24.193a1.336,1.336,0,0,0-1.335,1.335V44.38H18.934Zm6.594,7.426V40.648H42.844V44.38ZM10.1,43.548a2.748,2.748,0,1,1,5.5,0v7.291a2.748,2.748,0,0,1-5.5,0ZM65.7,85.816a2.853,2.853,0,0,1-2.839,2.861H5.509a2.853,2.853,0,0,1-2.839-2.861v-35.9A2.853,2.853,0,0,1,5.509,47.05H7.432v3.788a5.418,5.418,0,0,0,10.837,0V47.05H49.438v3.788a5.418,5.418,0,0,0,10.837,0V47.05h2.588A2.853,2.853,0,0,1,65.7,49.911v35.9Z" transform="translate(0 -31.348)" fill="#234177"/>
    </g>
  </g>
</svg>
