<svg xmlns="http://www.w3.org/2000/svg" width="67.265" height="70" viewBox="0 0 67.265 70">
  <g id="slim-body" transform="translate(-10.001 -0.001)">
    <g id="Group_18921" data-name="Group 18921" transform="translate(10.001 16.81)">
      <path id="Path_6993" data-name="Path 6993" d="M385.814,123.327l-2.763,15.883,15.883-2.763-3.741-3.741,4.121-4.121-5.637-5.637-4.121,4.121Z" transform="translate(-332.048 -122.947)" fill="#c1e6dd"/>
      <path id="Path_6994" data-name="Path 6994" d="M23.5,123.327l2.763,15.883-15.883-2.763,3.741-3.741L10,128.584l5.637-5.637,4.121,4.121Z" transform="translate(-10.001 -122.947)" fill="#c1e6dd"/>
    </g>
    <g id="Group_18922" data-name="Group 18922" transform="translate(25.64 0.001)">
      <path id="Path_6995" data-name="Path 6995" d="M158.523,38.646h0a30.624,30.624,0,0,0-2.208-3.908c-.463-.7-.946-1.372-1.434-2.012h0c-.092-.122-.483-.622-.783-1-.425-2.928,1.539-9.942,2.443-12.748a16.671,16.671,0,0,0,.921-17.935C157.02.333,156.4.277,154.1.178c-1.322-.057-3.141-.1-5.407-.132-4.248-.058-9.467-.06-13.622,0-1.99.027-3.584.065-4.736.112-1.96.081-2.621.108-3.058.86a16.927,16.927,0,0,0-2.139,9.178,15.949,15.949,0,0,0,3,8.791c.916,2.835,2.9,9.938,2.407,12.9-.28.354-.635.812-.658.844h0c-.488.639-.97,1.316-1.435,2.013a30.626,30.626,0,0,0-2.208,3.907c-4.275,9.092-.391,20.538,3.972,30.534a1.367,1.367,0,0,0,1.253.82H153.3a1.367,1.367,0,0,0,1.253-.82c4.363-10,8.246-21.442,3.972-30.535ZM142.336,47.3l-13-8.722c.422-.79.887-1.568,1.389-2.324.3-.455.615-.9.93-1.332h21.454c.316.431.627.876.93,1.331.492.739.947,1.5,1.361,2.27ZM151.4,32.189H133.258c.463-3.387-1.133-9.439-2.041-12.5h22.242C152.542,22.776,150.92,28.9,151.4,32.189ZM129.34,2.937c3.675-.3,22.6-.266,26.088.052a14.139,14.139,0,0,1-.8,13.969H130.046A14.366,14.366,0,0,1,129.34,2.937Zm-1.16,38.16,12.789,8.579v17.59h-8.607C128.606,58.529,125.379,48.787,128.181,41.1Zm24.22,26.17h-8.7V49.676l12.857-8.638c2.839,7.7-.394,17.469-4.16,26.229Z" transform="translate(-124.388 -0.001)" fill="#234177"/>
    </g>
  </g>
</svg>
