<svg xmlns="http://www.w3.org/2000/svg" width="70.007" height="70" viewBox="0 0 70.007 70">
  <g id="syringe_3_" data-name="syringe (3)" transform="translate(0 -0.026)">
    <g id="Group_18807" data-name="Group 18807" transform="translate(13.441 31.491)">
      <path id="Path_6900" data-name="Path 6900" d="M111.8,230.168l-12.7,12.7a2.742,2.742,0,0,0,0,3.867l7.734,7.734a2.742,2.742,0,0,0,3.867,0l24.3-24.3Z" transform="translate(-98.309 -230.168)" fill="#98d6c8" fill-rule="evenodd"/>
      <path id="Path_6901" data-name="Path 6901" d="M315.674,329.945a13.7,13.7,0,0,0,13.672-13.672c-.7-18.11-26.647-18.105-27.344,0A13.7,13.7,0,0,0,315.674,329.945Z" transform="translate(-274.153 -292.777)" fill="#98d6c8" fill-rule="evenodd"/>
    </g>
    <g id="Group_18808" data-name="Group 18808" transform="translate(0 0.026)">
      <path id="Path_6902" data-name="Path 6902" d="M69.6,8.16,61.866.426A1.367,1.367,0,1,0,59.932,2.36l.483.483L46.881,16.378l-4.35-4.35a1.367,1.367,0,0,0-1.933,0l-1.933,1.934a4.109,4.109,0,0,0-.8,4.668L13.272,43.22a4.13,4.13,0,0,0-.8,4.668c-1.251,1.235-2.325,2.111-2.33,4.032.013,1.828.951,2.692,2.165,3.867L.4,67.692a1.367,1.367,0,0,0,1.934,1.934l11.9-11.9c1.178,1.215,2.037,2.151,3.867,2.165,1.921,0,2.8-1.081,4.032-2.33a4.13,4.13,0,0,0,4.668-.8L51.4,32.163a4.106,4.106,0,0,0,4.668-.8L58,29.429A1.367,1.367,0,0,0,58,27.5l-4.35-4.35L67.183,9.611l.483.483A1.367,1.367,0,0,0,69.6,8.16ZM18.105,57.151a1.356,1.356,0,0,1-.967-.4l-3.867-3.867a1.382,1.382,0,0,1,0-1.933l.967-.967,5.8,5.8-.967.967a1.356,1.356,0,0,1-.967.4Zm5.8-1.933a1.357,1.357,0,0,1-.967-.4l-7.734-7.734a1.369,1.369,0,0,1,0-1.933L39.631,20.728,49.3,30.4l-7.991,7.991-1.45-1.45a1.367,1.367,0,0,0-1.933,1.934l1.45,1.45-2.417,2.417-1.45-1.45a1.367,1.367,0,0,0-1.933,1.934l1.45,1.45-2.417,2.417-1.45-1.45a1.367,1.367,0,1,0-1.933,1.934l1.45,1.45-2.417,2.417-1.45-1.45a1.367,1.367,0,0,0-1.934,1.934l1.45,1.45-1.45,1.45a1.358,1.358,0,0,1-.967.4Zm30.226-25.79a1.382,1.382,0,0,1-1.933,0l-11.6-11.6a1.382,1.382,0,0,1,0-1.933l.967-.967L55.1,28.462Zm-2.417-8.217-2.9-2.9L62.349,4.777l2.9,2.9Z" transform="translate(0 -0.026)" fill="#234177"/>
      <path id="Path_6903" data-name="Path 6903" d="M357.04,346.015h-2.62v-2.62a1.367,1.367,0,0,0-1.367-1.367h-5.7a1.367,1.367,0,0,0-1.367,1.367v2.62h-2.62A1.367,1.367,0,0,0,342,347.382v5.7a1.367,1.367,0,0,0,1.367,1.367h2.62v2.62a1.367,1.367,0,0,0,1.367,1.367h5.7a1.367,1.367,0,0,0,1.367-1.367v-2.62h2.62a1.367,1.367,0,0,0,1.367-1.367v-5.7A1.367,1.367,0,0,0,357.04,346.015Zm-1.367,5.7h-2.62a1.367,1.367,0,0,0-1.367,1.367v2.62h-2.962v-2.62a1.367,1.367,0,0,0-1.367-1.367h-2.62v-2.962h2.62a1.367,1.367,0,0,0,1.367-1.367v-2.62h2.962v2.62a1.367,1.367,0,0,0,1.367,1.367h2.62Z" transform="translate(-295.243 -295.269)" fill="#234177"/>
    </g>
  </g>
</svg>
