<svg xmlns="http://www.w3.org/2000/svg" width="59.018" height="70" viewBox="0 0 59.018 70">
  <g id="medical-report" transform="translate(-40.161 0.001)">
    <g id="Group_18790" data-name="Group 18790" transform="translate(47.544 15.388)">
      <path id="Path_6863" data-name="Path 6863" d="M0,0H42.723V31.94H0Z" transform="translate(31.94 0) rotate(90)" fill="#c1e6dd"/>
    </g>
    <g id="Group_18791" data-name="Group 18791" transform="translate(40.161 -0.001)">
      <path id="Path_6864" data-name="Path 6864" d="M79.425,8H75.139V7.12a1.367,1.367,0,0,0-1.367-1.367H69.279q0-.174-.011-.349a5.766,5.766,0,0,0-11.52.349H53.255A1.367,1.367,0,0,0,51.888,7.12V8H47.6a7.449,7.449,0,0,0-7.441,7.441V62.558A7.449,7.449,0,0,0,47.6,70H79.425a7.449,7.449,0,0,0,7.441-7.441V15.446A7.449,7.449,0,0,0,79.425,8Zm-24.8.483h4.706a1.367,1.367,0,0,0,1.3-1.788,3.032,3.032,0,1,1,5.769,0,1.367,1.367,0,0,0,1.3,1.788H72.4V9.9a4.124,4.124,0,0,1-4.12,4.12H58.742a4.124,4.124,0,0,1-4.12-4.12ZM84.132,62.558a4.712,4.712,0,0,1-4.707,4.707H47.6A4.712,4.712,0,0,1,42.9,62.558V15.446A4.712,4.712,0,0,1,47.6,10.739h4.337a6.864,6.864,0,0,0,6.8,6.016h9.543a6.864,6.864,0,0,0,6.8-6.016h4.337a4.712,4.712,0,0,1,4.707,4.707V62.558Z" transform="translate(-40.161 0.001)" fill="#234177"/>
      <path id="Path_6865" data-name="Path 6865" d="M153.145,304.661H134.4a1.367,1.367,0,0,0,0,2.734h18.745a1.367,1.367,0,1,0,0-2.734Z" transform="translate(-120.336 -263.008)" fill="#234177"/>
      <path id="Path_6866" data-name="Path 6866" d="M153.145,349.853H134.4a1.367,1.367,0,1,0,0,2.734h18.745a1.367,1.367,0,1,0,0-2.734Z" transform="translate(-120.336 -302.022)" fill="#234177"/>
      <path id="Path_6867" data-name="Path 6867" d="M157.058,170.612H159.6v2.539a1.367,1.367,0,0,0,1.367,1.367H165.7a1.367,1.367,0,0,0,1.367-1.367v-2.539h2.539a1.367,1.367,0,0,0,1.367-1.367v-4.737a1.367,1.367,0,0,0-1.367-1.367h-2.539V160.6a1.367,1.367,0,0,0-1.367-1.367h-4.737A1.367,1.367,0,0,0,159.6,160.6v2.539h-2.539a1.367,1.367,0,0,0-1.367,1.367v4.737A1.367,1.367,0,0,0,157.058,170.612Zm1.367-4.737h2.539a1.367,1.367,0,0,0,1.367-1.367v-2.539h2v2.539a1.367,1.367,0,0,0,1.367,1.367h2.539v2H165.7a1.367,1.367,0,0,0-1.367,1.367v2.539h-2v-2.539a1.367,1.367,0,0,0-1.367-1.367h-2.539Z" transform="translate(-139.896 -137.465)" fill="#234177"/>
      <path id="Path_6868" data-name="Path 6868" d="M408.362,108.095V59.71a5.027,5.027,0,1,0-10.053,0V108.1a1.508,1.508,0,0,0,.142.607l3.649,7.721a1.367,1.367,0,0,0,2.472,0l3.65-7.723a1.458,1.458,0,0,0,.141-.606Zm-7.319-43.766h4.584v42.4h-4.584Zm0-4.619a2.292,2.292,0,1,1,4.584,0v1.885h-4.584Zm2.292,52.93-1.5-3.177h3Z" transform="translate(-349.344 -47.207)" fill="#234177"/>
    </g>
  </g>
</svg>
