<svg xmlns="http://www.w3.org/2000/svg" width="51.953" height="70" viewBox="0 0 51.953 70">
  <g id="medicine_2_" data-name="medicine (2)" transform="translate(-66.001)">
    <path id="Path_6890" data-name="Path 6890" d="M118.5,226.485v35.126h37.6V226.485a2.954,2.954,0,0,0-2.945-2.945H121.446A2.953,2.953,0,0,0,118.5,226.485Z" transform="translate(-45.322 -192.978)" fill="#c1e6dd" fill-rule="evenodd"/>
    <g id="Group_18804" data-name="Group 18804" transform="translate(66.001)">
      <path id="Path_6891" data-name="Path 6891" d="M116.06,24.587l-8.634-5.6V13.672h.957a1.367,1.367,0,0,0,1.367-1.367V4.1a4.106,4.106,0,0,0-4.1-4.1H78.306a4.106,4.106,0,0,0-4.1,4.1v8.2a1.367,1.367,0,0,0,1.367,1.367h.957v5.317c-.036.03-8.853,5.744-8.885,5.772A3.829,3.829,0,0,0,66,27.891V66.172A3.832,3.832,0,0,0,69.829,70h44.3a3.832,3.832,0,0,0,3.828-3.828V27.891a3.839,3.839,0,0,0-1.894-3.3ZM76.938,4.1a1.369,1.369,0,0,1,1.367-1.367h27.344A1.369,1.369,0,0,1,107.017,4.1v6.836H103.6V8.2a1.367,1.367,0,1,0-2.734,0v2.734h-4.1V8.2a1.367,1.367,0,1,0-2.734,0v2.734h-4.1V8.2a1.367,1.367,0,1,0-2.734,0v2.734h-4.1V8.2a1.367,1.367,0,0,0-2.734,0v2.734H76.938Zm38.281,62.07a1.1,1.1,0,0,1-1.094,1.094h-44.3a1.1,1.1,0,0,1-1.094-1.094V27.892a1.091,1.091,0,0,1,.458-.879l9.447-6.135a1.367,1.367,0,0,0,.622-1.147V13.672h25.43v6.059a1.367,1.367,0,0,0,.623,1.147L114.6,26.9a1.12,1.12,0,0,1,.618.991s0,38.281,0,38.281Z" transform="translate(-66.001)" fill="#234177"/>
      <path id="Path_6892" data-name="Path 6892" d="M162.318,257.562a4.8,4.8,0,0,0-8.165-3.384l-6.767,6.767a4.785,4.785,0,0,0,6.767,6.767l6.767-6.767A4.752,4.752,0,0,0,162.318,257.562Zm-10.1,8.217a2.051,2.051,0,0,1-2.9-2.9l2.417-2.417,2.9,2.9Zm6.767-6.767-2.417,2.417-2.9-2.9,2.417-2.417a2.053,2.053,0,0,1,2.9,0h0A2.071,2.071,0,0,1,158.987,259.012Z" transform="translate(-135.051 -218.223)" fill="#234177"/>
      <path id="Path_6893" data-name="Path 6893" d="M224.673,317.764a7.555,7.555,0,0,0-7.414,6.258A7.532,7.532,0,0,0,211,331.435c.249,9.211,13.187,10.226,14.933,1.262C234.946,330.9,233.862,318.021,224.673,317.764Zm-6.152,18.457a4.794,4.794,0,0,1-4.586-3.418h4.586a1.367,1.367,0,0,0,0-2.734h-4.586a4.785,4.785,0,1,1,4.586,6.152Zm9.536-7.554a4.762,4.762,0,0,1-2.171,1.247,7.484,7.484,0,0,0-1.171-2.738l.926-.926a1.367,1.367,0,1,0-1.934-1.934l-.926.926a7.482,7.482,0,0,0-2.738-1.171,4.786,4.786,0,1,1,8.014,4.6Z" transform="translate(-191.177 -274.318)" fill="#234177"/>
    </g>
  </g>
</svg>
