<svg xmlns="http://www.w3.org/2000/svg" width="63.461" height="70" viewBox="0 0 63.461 70">
  <g id="stethoscope_1_" data-name="stethoscope (1)" transform="translate(-23.915 0)">
    <g id="Group_18831" data-name="Group 18831" transform="translate(40.545 30.418)">
      <g id="Group_18824" data-name="Group 18824" transform="translate(2.772)">
        <g id="Group_18823" data-name="Group 18823">
          <g id="Group_18822" data-name="Group 18822">
            <g id="Group_18821" data-name="Group 18821">
              <g id="Group_18820" data-name="Group 18820">
                <path id="Path_6962" data-name="Path 6962" d="M173.042,262.071a7.219,7.219,0,0,1-7.212-7.21V240.895a1.367,1.367,0,1,1,2.734,0v13.966a4.477,4.477,0,0,0,8.955,0V238.977a4.981,4.981,0,0,1,9.962,0v8.157a5.964,5.964,0,0,0,11.927,0V223.856a1.367,1.367,0,0,1,2.734,0v23.277a8.7,8.7,0,0,1-17.4,0v-8.157a2.247,2.247,0,0,0-4.493,0v15.884A7.219,7.219,0,0,1,173.042,262.071Z" transform="translate(-165.83 -222.489)" fill="#234177"/>
              </g>
            </g>
          </g>
        </g>
      </g>
      <g id="Group_18830" data-name="Group 18830" transform="translate(0 11.504)">
        <g id="Group_18829" data-name="Group 18829">
          <g id="Group_18828" data-name="Group 18828">
            <g id="Group_18827" data-name="Group 18827">
              <g id="Group_18826" data-name="Group 18826">
                <g id="Group_18825" data-name="Group 18825">
                  <ellipse id="Ellipse_413" data-name="Ellipse 413" cx="4.139" cy="4.138" rx="4.139" ry="4.138" fill="#c1e6dd"/>
                </g>
              </g>
            </g>
          </g>
        </g>
      </g>
    </g>
    <g id="Group_18844" data-name="Group 18844" transform="translate(23.915 0)">
      <path id="Path_6963" data-name="Path 6963" d="M64.087,14.18H62.7V3.381a1.367,1.367,0,0,0-1.367-1.367H53.715V1.367a1.367,1.367,0,0,0-2.734,0V5.394a1.367,1.367,0,0,0,2.734,0V4.748h6.254V14.18H58.586a1.367,1.367,0,0,0-1.367,1.367v6.5a12.534,12.534,0,0,1-25.068,0v-6.5a1.367,1.367,0,0,0-1.367-1.367H29.4V4.748h6.254v.646a1.367,1.367,0,0,0,2.734,0V1.367a1.367,1.367,0,0,0-2.734,0v.647H28.033a1.367,1.367,0,0,0-1.367,1.367v10.8H25.282a1.367,1.367,0,0,0-1.367,1.367v6.5a20.77,20.77,0,0,0,41.539,0v-6.5a1.367,1.367,0,0,0-1.367-1.367ZM62.72,22.046a18.035,18.035,0,0,1-36.071,0V16.915h2.767v5.131a15.268,15.268,0,0,0,30.537,0V16.915H62.72Z" transform="translate(-23.915 0)" fill="#234177"/>
      <g id="Group_18837" data-name="Group 18837" transform="translate(45.234 14.205)">
        <g id="Group_18836" data-name="Group 18836">
          <g id="Group_18835" data-name="Group 18835">
            <g id="Group_18834" data-name="Group 18834">
              <g id="Group_18833" data-name="Group 18833">
                <g id="Group_18832" data-name="Group 18832">
                  <ellipse id="Ellipse_414" data-name="Ellipse 414" cx="9.114" cy="9.111" rx="9.114" ry="9.111" fill="#c1e6dd"/>
                </g>
              </g>
            </g>
          </g>
        </g>
      </g>
      <g id="Group_18843" data-name="Group 18843" transform="translate(49.972 18.942)">
        <g id="Group_18842" data-name="Group 18842">
          <g id="Group_18841" data-name="Group 18841">
            <g id="Group_18840" data-name="Group 18840">
              <g id="Group_18839" data-name="Group 18839">
                <g id="Group_18838" data-name="Group 18838">
                  <path id="Path_6964" data-name="Path 6964" d="M393.8,147.294a4.374,4.374,0,1,1,4.375-4.374A4.38,4.38,0,0,1,393.8,147.294Zm0-6.014a1.64,1.64,0,1,0,1.641,1.64A1.642,1.642,0,0,0,393.8,141.279Z" transform="translate(-389.426 -138.545)" fill="#234177"/>
                </g>
              </g>
            </g>
          </g>
        </g>
      </g>
    </g>
  </g>
</svg>
